<svg  xmlns="http://www.w3.org/2000/svg" xmlns:xlink="http://www.w3.org/1999/xlink" width="930" height="300" viewBox="0 0 954 324"><path transform="translate(0 100)" d="M45.6,2.8L45.6,-24.7Q33.6,-24.9 22.6,-25.3Q17.4,-25.6 14.7,-28.35Q12,-31.1 11.8,-35.1Q11.6,-39.8 11.6,-44.1Q11.6,-48.6 11.8,-52.6Q11.9,-56.1 14.4,-59.2Q16.9,-62.3 22.4,-62.6Q33.5,-62.9 45.6,-62.9L45.6,-77.8Q45.6,-79.7 46.9,-80.65Q48.2,-81.6 49.8,-81.6Q51.4,-81.6 52.75,-80.65Q54.1,-79.7 54.1,-77.8L54.1,-62.9Q66.6,-62.9 78,-62.6Q82.5,-62.3 85.15,-59.5Q87.8,-56.7 88.1,-53.4Q88.3,-49.3 88.3,-44.5Q88.3,-39.7 88.1,-35.2Q87.9,-31.4 85.1,-28.55Q82.3,-25.7 77.4,-25.3Q66,-24.7 54.1,-24.7L54.1,2.8Q54.1,4.5 52.8,5.4Q51.5,6.3 49.8,6.3Q48.2,6.3 46.9,5.4Q45.6,4.5 45.6,2.8ZM54.1,-55.3L54.1,-32.4Q64.9,-32.5 74.4,-32.8Q77.2,-32.9 78.5,-34.35Q79.8,-35.8 79.9,-37.8Q80.1,-40.6 80.1,-43.9Q80.1,-50.1 79.2,-52.55Q78.3,-55 74.3,-55Q65.1,-55.3 54.1,-55.3ZM45.6,-32.4L45.6,-55.3Q37.3,-55.3 30,-55.1Q27.6,-55 25.5,-55Q22.9,-54.9 21.45,-53.45Q20,-52 19.9,-50Q19.7,-46.9 19.7,-43.3Q19.7,-37.8 20.55,-35.4Q21.4,-33 25.6,-32.8Q34.8,-32.4 45.6,-32.4Z"></path><path transform="translate(100 100)" d="M87.9,-54.9L87.8,-54.9L71.1,-55.2Q68.2,-36.3 56.2,-21.2Q69.3,-8.5 89.3,-4.7Q91.2,-4.4 92.1,-3.25Q93,-2.1 93,-0.7Q93,1.2 91.6,2.85Q90.2,4.5 87.9,4.5Q87.4,4.5 81.8,3.15Q76.2,1.8 68,-2.5Q59.8,-6.8 51,-15.3Q41.9,-6.3 33.1,-1.75Q24.3,2.8 18.25,4.3Q12.2,5.8 11.8,5.8Q9.6,5.8 8.25,4.3Q6.9,2.8 6.9,1.2Q6.9,-0.2 7.85,-1.35Q8.8,-2.5 10.8,-2.9Q31.6,-7 45.4,-21.5Q38.5,-30.2 34.2,-40.3Q30.2,-36.5 27.9,-34.75Q25.6,-33 24.45,-32.6Q23.3,-32.2 22.7,-32.2Q20.8,-32.2 19.55,-33.5Q18.3,-34.8 18.3,-36.4Q18.3,-38.8 21.5,-40.9Q25.5,-43.1 28.7,-46.15Q31.9,-49.2 33.5,-52Q34.5,-53.5 36.3,-53.5Q37.9,-53.5 39.4,-52.45Q40.9,-51.4 40.9,-49.7Q40.9,-49.1 40.5,-48.3L39.9,-47.3Q43.3,-36.5 50.5,-27.4Q59.9,-40 62.1,-55.3L57.7,-55.3Q49.7,-55.3 38.95,-55.2Q28.2,-55.1 20.2,-55Q12.2,-54.9 12.2,-54.9Q10.2,-54.9 9.25,-56.1Q8.3,-57.3 8.3,-58.8Q8.3,-60.3 9.3,-61.6Q10.3,-62.9 12.2,-62.9L45.8,-62.8L45.7,-77.6Q45.7,-79.6 47.1,-80.55Q48.5,-81.5 50.2,-81.5Q51.9,-81.5 53.3,-80.55Q54.7,-79.6 54.7,-77.6L54.6,-62.8L87.8,-62.9Q89.7,-62.9 90.65,-61.6Q91.6,-60.3 91.6,-58.8Q91.6,-57.3 90.7,-56.1Q89.8,-54.9 87.9,-54.9Z"></path><path transform="translate(200 100)" d="M88.5,-20.2L88.6,-7.8L88.6,-7.6Q88.6,-4.6 87.15,-1.65Q85.7,1.3 82.1,3.25Q78.5,5.2 72.1,5.2Q66.8,5.2 64.05,4.3Q61.3,3.4 61.3,0.3Q61.3,-1.3 62.25,-2.55Q63.2,-3.8 64.9,-3.8Q65,-3.8 65.2,-3.8Q65.4,-3.7 65.6,-3.7Q69.6,-2.9 72.7,-2.9Q76,-2.9 78.05,-4.25Q80.1,-5.6 80.1,-9.2Q80.1,-30.2 80.05,-40.55Q80,-50.9 79.95,-55.3Q79.9,-59.7 79.8,-61.9Q79.7,-66.3 77.9,-67.7Q76.1,-69.1 72.2,-69.1L69,-69.1Q68.6,-57.8 66.8,-44.3Q71.8,-40.1 74.1,-37.6Q76.4,-35.1 76.95,-33.85Q77.5,-32.6 77.5,-31.9Q77.5,-30.3 76.3,-29.1Q75.1,-27.9 73.6,-27.9Q72.1,-27.9 70.7,-29.6Q68.5,-32.9 65.3,-36.1Q62.4,-21.4 54.3,-9.8Q52.4,-7.5 50.3,-7.5Q48.8,-7.5 47.65,-8.6Q46.5,-9.7 46.5,-11.1Q46.5,-12.2 47.3,-13.3Q52.1,-19.8 54.85,-27.05Q57.6,-34.3 59,-41.6Q54.3,-45.3 49.7,-48Q48,-49.2 48,-50.7Q48,-52.1 49.05,-53.15Q50.1,-54.2 51.5,-54.2Q51.8,-54.2 52.2,-54.1Q52.6,-54 53.45,-53.55Q54.3,-53.1 55.9,-52.05Q57.5,-51 60.2,-49.2Q61.3,-59.8 61.5,-68.1Q61.5,-68.6 61.5,-69.2L45.2,-69.2L45.2,-69.1Q44.9,-58.2 42.7,-44.5Q47.8,-40.6 50.15,-38.25Q52.5,-35.9 53.1,-34.65Q53.7,-33.4 53.7,-32.7Q53.7,-31.1 52.55,-29.9Q51.4,-28.7 49.9,-28.7Q48.4,-28.7 47,-30.3Q44.6,-33.6 41.2,-36.6Q39.7,-30 37.15,-23.55Q34.6,-17.1 31.65,-12.7Q28.7,-8.3 25.9,-8.3Q24.4,-8.3 23.25,-9.4Q22.1,-10.5 22.1,-11.9Q22.1,-13 23,-14.2Q32.1,-26.2 34.8,-41.7Q29.9,-45.2 25.2,-47.7Q23.4,-48.9 23.4,-50.5Q23.4,-51.9 24.4,-52.95Q25.4,-54 26.9,-54Q27.2,-54 27.65,-53.85Q28.1,-53.7 29.05,-53.25Q30,-52.8 31.7,-51.8Q33.4,-50.8 36.1,-49.1Q37.4,-59.2 37.7,-69.2Q35.3,-69.2 33,-69.1Q30.7,-69.1 28.5,-69.1Q20.2,-69.3 20.6,-61.9Q20.2,-44.3 20.2,-24.6Q20.2,-17.9 20.2,-11Q20.3,-4 20.3,2.8Q20.3,4.7 19.05,5.65Q17.8,6.6 16.2,6.6Q14.6,6.6 13.3,5.65Q12,4.7 12,2.8Q12.1,-10.7 12.2,-24.6Q12.3,-45.3 12.5,-65.3Q13,-75.4 24.8,-76.1Q37.9,-76.4 51.7,-76.4Q63.9,-76.4 76,-76.1Q81,-76 84.4,-73.2Q87.8,-70.4 88.1,-64.8Q88.3,-51.5 88.3,-38.5Q88.4,-28.3 88.5,-20.2Z"></path><path transform="translate(300 100)" d="M89.4,-23.1L61.7,-23Q62.2,-20 62.2,-17Q62.2,-16.3 62,-13.75Q61.8,-11.2 60.85,-7.8Q59.9,-4.4 57.7,-1.15Q55.5,2.1 51.6,4.3Q47.7,6.5 41.5,6.5Q36.2,6.5 33.8,5.45Q31.4,4.4 30.8,3.15Q30.2,1.9 30.2,1.2Q30.2,-0.4 31.25,-1.6Q32.3,-2.8 34.1,-2.8Q34.7,-2.8 35.5,-2.6Q38.9,-1.5 42.2,-1.5Q46.6,-1.5 49.05,-3.55Q51.5,-5.6 52.65,-8.45Q53.8,-11.3 54.05,-13.85Q54.3,-16.4 54.3,-17.4Q54.3,-20.1 53.7,-22.9L10.9,-22.6Q9,-22.6 8.05,-23.75Q7.1,-24.9 7.1,-26.2Q7.1,-27.6 8.05,-28.8Q9,-30 10.8,-30L50.4,-30.1Q47.9,-33.4 43.8,-35Q41.3,-36.2 41.3,-38Q41.3,-39.4 42.6,-40.55Q43.9,-41.7 45.8,-41.7Q46.8,-41.7 48,-41.25Q49.2,-40.8 51.5,-39.5Q53,-40.4 55.5,-42.15Q58,-43.9 60.05,-45.6Q62.1,-47.3 62.1,-47.9Q62.1,-48.3 61.6,-48.5Q61.1,-48.7 59.55,-48.8Q58,-48.9 54.8,-48.9Q49.6,-48.9 42.65,-48.75Q35.7,-48.6 30.2,-48.4L30,-48.4Q28.1,-48.4 27.15,-49.55Q26.2,-50.7 26.2,-52Q26.2,-53.4 27.2,-54.5Q28.2,-55.6 30.1,-55.7Q38.7,-56 48.1,-56Q57.6,-56 64.3,-55.8Q68.3,-55.7 70.25,-54.05Q72.2,-52.4 72.2,-50Q72.2,-46.9 69.2,-43.75Q66.2,-40.6 56.7,-34.7Q58.3,-32.6 59.4,-30.2L89.4,-30.5Q91.2,-30.5 92.1,-29.3Q93,-28.1 93,-26.7Q93,-25.4 92.1,-24.25Q91.2,-23.1 89.4,-23.1ZM79.7,-50.8L79.7,-50.9Q79.7,-58.9 78.8,-61.05Q77.9,-63.2 73.4,-63Q60.6,-63.2 47.1,-63.2Q36,-63.2 26.3,-63Q22.4,-62.9 21.1,-61.55Q19.8,-60.2 19.8,-57.4L19.8,-50.5Q19.8,-48.6 18.5,-47.65Q17.2,-46.7 15.5,-46.7Q14,-46.7 12.7,-47.65Q11.4,-48.6 11.4,-50.6Q11.4,-51.5 11.4,-52.6Q11.3,-53.8 11.3,-55.2Q11.3,-56.5 11.4,-57.8Q11.4,-59.1 11.4,-60.3Q11.5,-64.2 14.2,-66.95Q16.9,-69.7 22.6,-69.9Q22.9,-69.9 23.2,-69.9Q34.7,-70.1 45.8,-70.1L45.8,-78.5Q45.8,-80.5 47.2,-81.45Q48.6,-82.4 50.2,-82.4Q51.9,-82.4 53.25,-81.45Q54.6,-80.5 54.6,-78.5L54.6,-70.1Q65.6,-70.1 76.7,-69.9Q77,-69.9 77.3,-69.9Q82.3,-69.7 85.25,-67Q88.2,-64.3 88.4,-60.1Q88.5,-58 88.5,-55.4Q88.5,-52.9 88.4,-50.9Q88.3,-49 86.95,-48Q85.6,-47 83.9,-47Q82.3,-47 81,-47.95Q79.7,-48.9 79.7,-50.8Z"></path><path transform="translate(400 100)" d="M58.9,-42.2L38,-42.2Q36,-42.2 34.7,-43.5Q33.7,-44.6 33.7,-46Q33.7,-47.2 34.4,-48.2Q35.5,-49.7 38,-49.7L58.9,-49.7L58.9,-76.7Q58.9,-78.3 60.1,-79.6Q61.3,-80.9 62.8,-80.9Q64.4,-80.9 65.5,-79.7Q66.7,-78.4 66.7,-76.7L66.7,-49.7L88.5,-49.7Q90.1,-49.7 91.2,-48.5Q92.2,-47.4 92.2,-45.9Q92.2,-44.4 91.1,-43.3Q90,-42.2 88.5,-42.2L66.7,-42.2L66.7,2.6Q66.7,5 64.9,6.3Q63.9,7 62.8,7Q61.3,7 60.2,5.8Q58.9,4.5 58.9,2.6L58.9,-42.2ZM26.1,-6.5Q29.6,-8.9 33.2,-12Q37.2,-15.4 38.9,-15.4Q40,-15.4 40.9,-14.7Q42.2,-13.7 42.2,-11.8Q42.2,-9.8 39.7,-7.6Q34.2,-2.6 26.8,2Q22.5,4.7 20.3,4.7Q18.4,4.7 17.3,3.3Q16.5,2.2 16.5,0.9Q16.5,0.2 17.2,-1Q18.7,-3.7 18.7,-8.5L18.7,-43.7Q18.7,-46.6 15.8,-46.6L6.1,-46.6Q4.3,-46.6 3.1,-47.8Q2.1,-48.8 2.1,-50.2Q2.1,-51.4 3,-52.4Q4.1,-53.7 6.1,-53.7L16.6,-53.7Q19.8,-53.7 21.3,-53.1Q24.3,-51.9 25.5,-48.9Q26.1,-47.4 26.1,-44.2L26.1,-6.5ZM15.3,-79.1Q17.1,-79.1 19.5,-77Q24.4,-72.7 30,-67.2Q33.1,-64.2 33.1,-61.7Q33.1,-60.3 32.2,-59.3Q31.2,-58.3 29.8,-58.3Q28,-58.3 25.6,-60.8Q20.7,-65.7 18.8,-67.4Q13,-72.6 12.3,-73.9Q11.8,-74.9 11.8,-75.7Q11.8,-77.1 12.8,-78.1Q13.9,-79.1 15.3,-79.1Z"></path><path transform="translate(495 100)" d="M27.7,-54.5L50.3,-57.2Q50.8,-57.2 51.4,-57.2Q54.9,-57.2 54.9,-54Q54.9,-52.8 54.3,-51.8Q53.4,-50.5 51.9,-50.4L28.3,-47.4L29.1,-41.2Q30.6,-28.7 32.7,-23Q35.1,-25.8 36.9,-28.5Q39.3,-32.1 44.2,-41.6Q46,-45.1 48.3,-45.1Q50,-45.1 50.9,-43.7Q51.5,-42.7 51.5,-41.7Q51.5,-38.6 46.9,-30.3Q42.7,-22.9 35.8,-15.4Q38.4,-10.1 41.7,-6.4Q45,-2.7 47.3,-2.7Q48.3,-2.7 48.6,-3.7Q49.2,-5.7 49.9,-12.7Q50.3,-17.2 53.2,-17.2Q54.7,-17.2 55.7,-16.1Q56.9,-15 56.9,-12.9Q56.9,-5.7 55,1Q53.6,6 49.2,6Q45.6,6 40.4,2.3Q34.8,-1.7 30.3,-10.2Q25,-5.6 19.8,-2.1Q11.3,3.5 7.9,3.5Q6.4,3.5 5.4,2.5Q4.4,1.6 4.4,0.2Q4.4,-2.5 9.5,-5Q17.6,-9.1 25.8,-16.1Q26.6,-16.8 27.2,-17.3Q23.8,-26.4 21.3,-46.5L7.9,-44.8Q7.7,-44.7 7.5,-44.7Q6.2,-44.7 5.1,-45.7Q3.7,-46.9 3.7,-48.5Q3.7,-49.5 4.4,-50.4Q5.5,-51.9 7.6,-52.1L20.7,-53.7Q20.5,-57.1 20.3,-60.6Q20,-66.5 19.9,-68.6Q19.6,-73.3 19.6,-74.9Q19.6,-79.8 23.2,-79.8Q25.1,-79.8 26,-78.4Q26.7,-77 26.8,-71.4Q26.9,-66.7 27.5,-57.4L27.7,-54.5ZM67,-66.9L67,-18.6Q67,-14.2 63.1,-14.2Q59.6,-14.2 59.6,-18.6L59.6,-66.9Q59.6,-69.5 61.3,-70.8Q62.3,-71.5 63.4,-71.5Q64.5,-71.5 65.5,-70.7Q67,-69.4 67,-66.9ZM80.1,-6.2L80.1,-76.2Q80.1,-78.1 81.2,-79.3Q82.3,-80.5 83.8,-80.5Q85,-80.5 86,-79.6Q87.5,-78.3 87.5,-76.2L87.5,-4.7Q87.5,0.4 85.9,2.5Q83.3,6 77.1,6Q71.7,6 64.9,4.5Q60,3.3 60,-0Q60,-1.3 60.9,-2.4Q61.8,-3.5 63.2,-3.5Q64.1,-3.5 65.4,-3.2Q71.9,-1.6 76.1,-1.6Q78.4,-1.6 79.2,-2.4Q80.1,-3.3 80.1,-6.2ZM36.9,-77.6Q38.3,-77.6 39.9,-76.2Q40.8,-75.4 45.4,-69.4Q48.5,-65.2 48.7,-62.9Q48.9,-61.3 47.5,-60.2Q46.7,-59.5 45.7,-59.5Q44.4,-59.5 43.2,-60.6Q42.5,-61.2 40.2,-64.9Q38.3,-67.6 36.7,-69.6Q33.8,-73.1 33.8,-74.7Q33.8,-76.1 34.8,-76.9Q35.8,-77.6 36.9,-77.6Z"></path><path transform="translate(0 200)" d="M27.3,-4L27.3,-4.1Q27.5,-10.3 27.55,-20.3Q27.6,-30.3 27.6,-40.5Q27.6,-54.2 27.4,-63.4Q27.4,-64.4 27.15,-64.75Q26.9,-65.1 25.55,-65.2Q24.2,-65.3 21,-65.3Q18.1,-65.3 14.7,-65.2Q11,-65.1 7.3,-65.1Q4.8,-65.1 3.6,-66.55Q2.4,-68 2.4,-69.7Q2.4,-71.4 3.6,-72.8Q4.8,-74.2 7.2,-74.2L7.3,-74.2Q18.8,-74 34.4,-74Q47.3,-74 57.2,-74.2L57.3,-74.2Q59.5,-74.2 60.6,-72.75Q61.7,-71.3 61.7,-69.6Q61.7,-67.9 60.65,-66.5Q59.6,-65.1 57.5,-65.1L57.2,-65.1Q52,-65.3 48.1,-65.3Q44.2,-65.3 42,-65.25Q39.8,-65.2 38.85,-65.05Q37.9,-64.9 37.65,-64.5Q37.4,-64.1 37.4,-63.4Q37.2,-54.2 37.2,-42Q37.2,-31.5 37.35,-21.15Q37.5,-10.8 37.7,-4.1L37.7,-3.9Q37.7,-1.7 36.1,-0.6Q34.5,0.5 32.5,0.5Q30.6,0.5 28.95,-0.65Q27.3,-1.8 27.3,-4Z"></path><path transform="translate(64 200)" d="M40.7,-3.6L40.7,-3.7Q40.8,-6.9 40.85,-11.95Q40.9,-17 40.9,-21.6Q40.9,-27.6 40.7,-30.6Q40.2,-36 37.35,-38.45Q34.5,-40.9 30.7,-40.9Q26.1,-40.9 21.95,-37.75Q17.8,-34.6 17.4,-29.4Q17.3,-26.3 17.3,-20.7Q17.3,-13.7 17.5,-3.7L17.5,-3.6Q17.5,-1.5 16.15,-0.45Q14.8,0.6 13.1,0.6Q11.5,0.6 10.05,-0.45Q8.6,-1.5 8.6,-3.6L8.6,-3.8Q8.8,-11.7 8.9,-23.2Q9,-34.7 9,-45.9Q9,-55 8.9,-62.4Q8.9,-67.4 8.9,-70.6Q8.9,-72.5 10.35,-73.5Q11.8,-74.5 13.5,-74.5Q15.2,-74.5 16.5,-73.5Q17.8,-72.5 17.8,-70.5Q17.8,-66.8 17.75,-61.1Q17.7,-55.4 17.7,-50.55Q17.7,-45.7 17.6,-44Q17.6,-43.8 17.6,-43.6Q17.6,-43.4 17.7,-43.4Q17.8,-43.4 17.9,-43.5Q18,-43.6 18.2,-43.8Q24.1,-48.8 32.2,-48.8Q36.4,-48.8 40.3,-47.1Q44.2,-45.4 46.7,-41.7Q49.2,-38 49.5,-32Q49.6,-29.5 49.65,-24.7Q49.7,-19.9 49.7,-14.9Q49.7,-8.6 49.6,-4Q49.5,-1.7 48.15,-0.55Q46.8,0.6 45.1,0.6Q43.5,0.6 42.1,-0.5Q40.7,-1.6 40.7,-3.6Z"></path><path transform="translate(121 200)" d="M48.1,-7Q44.8,-3.3 40.2,-1.05Q35.6,1.2 28.4,1.2Q18.4,1.2 11.65,-5.65Q4.9,-12.5 4.9,-23.5Q4.9,-31.1 8.1,-36.75Q11.3,-42.4 16.6,-45.6Q21.9,-48.8 28.1,-48.8Q34.8,-48.8 39.45,-45.95Q44.1,-43.1 46.6,-39.1Q49.1,-35.1 49.1,-31.4Q49.1,-28.1 46.95,-25.85Q44.8,-23.6 40.4,-23.4Q36.6,-23.3 31.5,-23.3Q24.9,-23.3 18.9,-23.4Q15.9,-23.4 14.7,-23.4Q14.1,-23.4 13.95,-22.9Q13.8,-22.4 13.8,-21.5Q13.8,-14.6 18.2,-10.7Q22.6,-6.8 28.5,-6.8Q33.5,-6.8 36.7,-8.7Q39.9,-10.6 42,-13.1Q43.4,-14.5 44.9,-14.5Q46.6,-14.5 48,-13.15Q49.4,-11.8 49.4,-10Q49.4,-8.5 48.1,-7ZM40.2,-32.9Q40.2,-34.1 39.1,-36.1Q38,-38.1 35.4,-39.7Q32.8,-41.3 28.2,-41.3Q24.2,-41.3 21.15,-39.4Q18.1,-37.5 16.4,-35.15Q14.7,-32.8 14.7,-31.3Q14.7,-31.1 14.85,-30.95Q15,-30.8 15.6,-30.7Q16.2,-30.6 17.4,-30.55Q18.6,-30.5 20.65,-30.5Q22.7,-30.5 25.8,-30.5Q29.2,-30.5 32.45,-30.5Q35.7,-30.5 37.8,-30.6Q40.2,-31 40.2,-32.9Z"></path><path transform="translate(175 200)" d=""></path><path transform="translate(197 200)" d="M19.1,-4.5Q19.1,-2 17.55,-0.85Q16,0.3 14.1,0.3Q12.3,0.3 10.75,-0.8Q9.2,-1.9 9.2,-4L9.2,-4.3Q9.6,-17.1 9.6,-30.1Q9.6,-38 9.5,-45.2Q9.5,-51.2 9.5,-55.9Q9.5,-60.1 9.6,-62.9Q9.9,-68.8 12.95,-71.4Q16,-74 20.35,-74.55Q24.7,-75.1 28.5,-75.1Q31.5,-75.1 34,-74.9Q45.4,-73.9 50.9,-67.4Q56.4,-60.9 56.4,-53Q56.4,-45 51.05,-38.2Q45.7,-31.4 35.4,-30Q31.9,-29.6 28.3,-29.6Q24.3,-29.6 20.1,-30.4Q19.7,-30.5 19.4,-30.5Q19,-30.5 18.9,-30.2Q18.8,-29.9 18.8,-29.2Q18.8,-24.6 18.9,-19.2Q19.1,-13.7 19.1,-8.5L19.1,-4.5ZM33.9,-38.7Q40.1,-39.5 43.45,-43.85Q46.8,-48.2 46.8,-53.2Q46.8,-58.1 43.45,-61.95Q40.1,-65.8 33,-66.1Q32.8,-66.1 32,-66.1Q30.2,-66.2 27.7,-66.2Q21.6,-66.2 20.05,-64.3Q18.5,-62.4 18.5,-55.9Q18.5,-52.8 18.6,-49.2Q18.7,-45.7 18.7,-42.8Q18.7,-41.2 19.1,-40.25Q19.5,-39.3 21.35,-38.85Q23.2,-38.4 27.7,-38.4Q30.7,-38.4 33.9,-38.7Z"></path><path transform="translate(258 200)" d="M17.6,-3.7L17.6,-3.6Q17.6,-1.5 16.25,-0.45Q14.9,0.6 13.2,0.6Q11.5,0.6 10.05,-0.45Q8.6,-1.5 8.6,-3.6L8.6,-3.8Q9,-17.9 9,-28.8Q9,-36.6 8.8,-44.2L8.8,-44.4Q8.8,-46.3 10.3,-47.2Q11.8,-48.1 13.4,-48.1Q15,-48.1 16.4,-47.15Q17.8,-46.2 17.8,-44.1Q17.8,-43.5 17.7,-43.1Q17.7,-42.7 17.7,-42.2L17.7,-41.6Q17.8,-41.6 17.9,-41.7Q18,-41.8 18.2,-42Q21.5,-45.6 25.5,-46.95Q29.5,-48.3 31.6,-48.3Q33.7,-48.3 34.8,-47.05Q35.9,-45.8 35.9,-44.2Q35.9,-42.6 34.75,-41.2Q33.6,-39.8 31.1,-39.6Q26.1,-39.2 22.05,-36.05Q18,-32.9 17.5,-27.7Q17.4,-24.8 17.4,-19.7Q17.4,-13.4 17.6,-3.7Z"></path><path transform="translate(296 200)" d="M29.2,1Q18.7,1 11.7,-5.8Q4.7,-12.6 4.7,-23.8Q4.7,-34.6 11.7,-41.65Q18.7,-48.7 29.2,-48.7Q39.7,-48.7 46.7,-41.65Q53.7,-34.6 53.7,-23.8Q53.7,-12.6 46.7,-5.8Q39.7,1 29.2,1ZM29.2,-7Q35.7,-7 40.35,-11.55Q45,-16.1 45,-23.8Q45,-31.6 40.35,-36.2Q35.7,-40.8 29.2,-40.8Q22.7,-40.8 18.05,-36.2Q13.4,-31.6 13.4,-23.8Q13.4,-16.1 18.05,-11.55Q22.7,-7 29.2,-7Z"></path><path transform="translate(354 200)" d="M18.8,-43.9L18.8,-43.8Q18.7,-38.2 18.7,-30.7Q18.7,-25.8 18.75,-21.1Q18.8,-16.4 18.8,-13.35Q18.8,-10.3 18.8,-10.3L18.8,2.3Q18.4,10.4 14.95,15.5Q11.5,20.6 6.95,23Q2.4,25.4 -0.7,25.4Q-2.7,25.4 -3.8,24Q-4.9,22.6 -4.9,21Q-4.9,19.6 -4.05,18.45Q-3.2,17.3 -1.5,17Q3.3,16.2 6.5,12.05Q9.7,7.9 10,1.3Q10.1,-1.1 10.1,-2.6Q10.1,-4.9 10,-6.4Q9.9,-7.9 9.9,-10.6Q9.9,-10.6 9.85,-15.05Q9.8,-19.5 9.75,-25.9Q9.7,-32.3 9.7,-38.2L9.7,-43.7Q9.7,-46 11.15,-47.1Q12.6,-48.2 14.2,-48.2Q15.9,-48.2 17.35,-47.1Q18.8,-46 18.8,-43.9ZM14.1,-62.6Q11.9,-62.6 9.85,-64Q7.8,-65.4 7.8,-69Q7.8,-72.2 9.95,-73.6Q12.1,-75 14,-75Q16.4,-75 18.35,-73.3Q20.3,-71.6 20.3,-69Q20.3,-66.7 18.65,-64.65Q17,-62.6 14.1,-62.6Z"></path><path transform="translate(382 200)" d="M48.1,-7Q44.8,-3.3 40.2,-1.05Q35.6,1.2 28.4,1.2Q18.4,1.2 11.65,-5.65Q4.9,-12.5 4.9,-23.5Q4.9,-31.1 8.1,-36.75Q11.3,-42.4 16.6,-45.6Q21.9,-48.8 28.1,-48.8Q34.8,-48.8 39.45,-45.95Q44.1,-43.1 46.6,-39.1Q49.1,-35.1 49.1,-31.4Q49.1,-28.1 46.95,-25.85Q44.8,-23.6 40.4,-23.4Q36.6,-23.3 31.5,-23.3Q24.9,-23.3 18.9,-23.4Q15.9,-23.4 14.7,-23.4Q14.1,-23.4 13.95,-22.9Q13.8,-22.4 13.8,-21.5Q13.8,-14.6 18.2,-10.7Q22.6,-6.8 28.5,-6.8Q33.5,-6.8 36.7,-8.7Q39.9,-10.6 42,-13.1Q43.4,-14.5 44.9,-14.5Q46.6,-14.5 48,-13.15Q49.4,-11.8 49.4,-10Q49.4,-8.5 48.1,-7ZM40.2,-32.9Q40.2,-34.1 39.1,-36.1Q38,-38.1 35.4,-39.7Q32.8,-41.3 28.2,-41.3Q24.2,-41.3 21.15,-39.4Q18.1,-37.5 16.4,-35.15Q14.7,-32.8 14.7,-31.3Q14.7,-31.1 14.85,-30.95Q15,-30.8 15.6,-30.7Q16.2,-30.6 17.4,-30.55Q18.6,-30.5 20.65,-30.5Q22.7,-30.5 25.8,-30.5Q29.2,-30.5 32.45,-30.5Q35.7,-30.5 37.8,-30.6Q40.2,-31 40.2,-32.9Z"></path><path transform="translate(436 200)" d="M48.8,-9.7Q48.8,-7.9 46.35,-5.35Q43.9,-2.8 39.55,-0.9Q35.2,1 29.3,1Q20.6,1 15.2,-2.8Q9.8,-6.6 7.3,-12.25Q4.8,-17.9 4.8,-23.4Q4.8,-29.4 7.5,-35.25Q10.2,-41.1 15.65,-45Q21.1,-48.9 29.4,-48.9Q34.6,-48.9 38.5,-47.25Q42.4,-45.6 44.65,-43.35Q46.9,-41.1 46.9,-39.2Q46.9,-37.3 45.5,-35.95Q44.1,-34.6 42.3,-34.6Q40.5,-34.6 38.7,-36.5Q36.9,-38.6 34.35,-39.65Q31.8,-40.7 28.9,-40.7Q23.8,-40.7 20.4,-38.15Q17,-35.6 15.25,-31.75Q13.5,-27.9 13.5,-23.8Q13.5,-20 15.15,-16.25Q16.8,-12.5 20.25,-10Q23.7,-7.5 29.1,-7.5Q32.4,-7.5 35.45,-8.7Q38.5,-9.9 40.4,-12.4Q42.1,-14.4 44,-14.4Q45.9,-14.4 47.35,-13Q48.8,-11.6 48.8,-9.7Z"></path><path transform="translate(488 200)" d="M29,-39.7L21.7,-39.7Q20.6,-39.7 20.4,-39.4Q20.2,-39.1 20.2,-38.5Q20.2,-36.1 20.1,-31.4Q19.9,-24.7 19.9,-18.8Q19.9,-15.1 20.25,-12.45Q20.6,-9.8 22,-8.45Q23.4,-7.1 26.5,-7.1Q27.7,-7.1 28.9,-7.3L29.5,-7.3Q31.3,-7.3 32.25,-6.15Q33.2,-5 33.2,-3.6Q33.2,-1.3 31.75,-0.35Q30.3,0.6 28.45,0.8Q26.6,1 25.4,1Q20.1,1 17.2,-0.95Q14.3,-2.9 13.05,-5.65Q11.8,-8.4 11.55,-11.2Q11.3,-14 11.3,-15.6Q11.3,-20.3 11.4,-27.5Q11.5,-33.7 11.5,-36.9L11.5,-38.4Q11.5,-39.3 11.15,-39.5Q10.8,-39.7 10.1,-39.7L6.2,-39.7Q4.3,-39.7 3.3,-41Q2.3,-42.3 2.3,-43.8Q2.3,-45.3 3.25,-46.5Q4.2,-47.7 6.2,-47.7L10,-47.7Q11.1,-47.7 11.3,-48Q11.5,-48.3 11.5,-49.2Q11.5,-49.3 11.5,-49.7Q11.6,-50.4 11.65,-52Q11.7,-53.6 11.7,-55.3Q11.7,-56.8 11.6,-58.1L11.6,-58.4Q11.6,-60.3 12.9,-61.25Q14.2,-62.2 15.8,-62.2Q18.1,-62.2 19.05,-61.2Q20,-60.2 20.2,-58.9Q20.4,-57.6 20.4,-56.7Q20.4,-55.2 20.35,-53.45Q20.3,-51.7 20.25,-50.45Q20.2,-49.2 20.2,-49.2Q20.2,-48.2 20.5,-47.95Q20.8,-47.7 21.6,-47.7L29,-47.7Q31,-47.7 31.95,-46.45Q32.9,-45.2 32.9,-43.7Q32.9,-42.2 31.95,-40.95Q31,-39.7 29,-39.7Z"></path><path transform="translate(524 200)" d=""></path><path transform="translate(546 200)" d="M9.1,-4.2L9.1,-4.3Q9.2,-13.2 9.2,-29.7Q9.3,-39.9 9.35,-49Q9.4,-58.1 9.5,-62.8Q10.2,-74.1 22.4,-74.8Q23.9,-74.9 27.5,-74.95Q31.1,-75 35.2,-75Q39.3,-75 42.85,-74.95Q46.4,-74.9 47.6,-74.8Q50,-74.6 51.15,-73.3Q52.3,-72 52.3,-70.4Q52.3,-68.7 51.05,-67.25Q49.8,-65.8 47.3,-65.8L47.2,-65.8Q46.9,-65.8 45.4,-65.8Q43.1,-65.8 39.2,-65.85Q35.3,-65.9 31.6,-65.9Q24.3,-65.9 21.6,-65.1Q18.9,-64.3 18.8,-60.8Q18.6,-58.4 18.7,-53Q18.7,-49.6 18.6,-46.1Q18.6,-45.4 18.75,-45.05Q18.9,-44.7 19.75,-44.5Q20.6,-44.3 22.4,-44.25Q24.2,-44.2 27.5,-44.2Q31.6,-44.2 35.75,-44.25Q39.9,-44.3 41.8,-44.4Q42.6,-44.5 43.75,-44.2Q44.9,-43.9 45.8,-42.9Q46.7,-41.9 46.7,-39.8Q46.7,-38 45.55,-36.5Q44.4,-35 42.1,-35L41.7,-35Q37.4,-35.3 31.7,-35.3Q27,-35.3 24.3,-35.25Q21.6,-35.2 20.35,-35Q19.1,-34.8 18.8,-34.4Q18.5,-34 18.5,-33.3Q18.5,-28.9 18.5,-21.2Q18.6,-13 18.6,-7.8L18.6,-4.1Q18.4,-2 16.9,-0.9Q15.4,0.2 13.6,0.2Q11.9,0.2 10.5,-0.9Q9.1,-2 9.1,-4.2Z"></path><path transform="translate(601 200)" d="M29.2,1Q18.7,1 11.7,-5.8Q4.7,-12.6 4.7,-23.8Q4.7,-34.6 11.7,-41.65Q18.7,-48.7 29.2,-48.7Q39.7,-48.7 46.7,-41.65Q53.7,-34.6 53.7,-23.8Q53.7,-12.6 46.7,-5.8Q39.7,1 29.2,1ZM29.2,-7Q35.7,-7 40.35,-11.55Q45,-16.1 45,-23.8Q45,-31.6 40.35,-36.2Q35.7,-40.8 29.2,-40.8Q22.7,-40.8 18.05,-36.2Q13.4,-31.6 13.4,-23.8Q13.4,-16.1 18.05,-11.55Q22.7,-7 29.2,-7Z"></path><path transform="translate(659 200)" d="M17.6,-3.7L17.6,-3.6Q17.6,-1.5 16.25,-0.45Q14.9,0.6 13.2,0.6Q11.5,0.6 10.05,-0.45Q8.6,-1.5 8.6,-3.6L8.6,-3.8Q9,-17.9 9,-28.8Q9,-36.6 8.8,-44.2L8.8,-44.4Q8.8,-46.3 10.3,-47.2Q11.8,-48.1 13.4,-48.1Q15,-48.1 16.4,-47.15Q17.8,-46.2 17.8,-44.1Q17.8,-43.5 17.7,-43.1Q17.7,-42.7 17.7,-42.2L17.7,-41.6Q17.8,-41.6 17.9,-41.7Q18,-41.8 18.2,-42Q21.5,-45.6 25.5,-46.95Q29.5,-48.3 31.6,-48.3Q33.7,-48.3 34.8,-47.05Q35.9,-45.8 35.9,-44.2Q35.9,-42.6 34.75,-41.2Q33.6,-39.8 31.1,-39.6Q26.1,-39.2 22.05,-36.05Q18,-32.9 17.5,-27.7Q17.4,-24.8 17.4,-19.7Q17.4,-13.4 17.6,-3.7Z"></path><path transform="translate(697 200)" d=""></path><path transform="translate(719 200)" d="M78,-9Q76.9,-4.5 74,-2.05Q71.1,0.4 67.9,0.4Q64.8,0.4 62.1,-1.95Q59.4,-4.3 58,-9.4Q56.6,-15.2 54.6,-25.7Q52.6,-36.2 50.8,-46.35Q49,-56.5 48.4,-61.2Q47.9,-63.3 47.3,-63.3Q46.6,-63.3 46.1,-61.2Q44.9,-53.2 41.8,-36.6Q38.7,-20 36.1,-9.5Q34.7,-4.5 31.8,-2Q28.9,0.5 25.6,0.5Q22.3,0.5 19.45,-2Q16.6,-4.5 15.5,-9.4Q12.9,-21.4 11,-30.4Q9.1,-39.4 7.75,-45.8Q6.4,-52.2 5.55,-56.5Q4.7,-60.8 4.2,-63.45Q3.7,-66.1 3.45,-67.45Q3.2,-68.8 3.15,-69.35Q3.1,-69.9 3.1,-70.1Q3.1,-72.3 4.75,-73.4Q6.4,-74.5 8.3,-74.5Q10,-74.5 11.5,-73.6Q13,-72.7 13.4,-70.8Q15.5,-58.8 18.9,-40.85Q22.3,-22.9 24.1,-13.7Q24.8,-10.9 26,-10.9Q27.2,-10.9 28.1,-13.7Q29.1,-18.3 31.1,-28.3Q33.1,-38.3 35.2,-49.15Q37.3,-60 38.7,-67.1Q39.5,-70.9 41.95,-72.7Q44.4,-74.5 47.2,-74.5Q50.1,-74.5 52.65,-72.65Q55.2,-70.8 56,-67.4Q57.9,-57.6 61,-40.75Q64.1,-23.9 65.9,-14Q66.6,-11.3 67.5,-11.3Q68.7,-11.3 69.5,-14Q70.8,-19.1 73.15,-29.85Q75.5,-40.6 77.95,-52.1Q80.4,-63.6 81.8,-70.9Q82.2,-72.8 83.6,-73.7Q85,-74.6 86.6,-74.6Q88.6,-74.6 90.3,-73.45Q92,-72.3 92,-70.2Q92,-69.9 91.95,-69.35Q91.9,-68.8 91.6,-67.4Q91.3,-66 90.75,-63.35Q90.2,-60.7 89.2,-56.4Q88.2,-52.1 86.7,-45.65Q85.2,-39.2 83.05,-30.15Q80.9,-21.1 78,-9Z"></path><path transform="translate(814 200)" d="M48.1,-7Q44.8,-3.3 40.2,-1.05Q35.6,1.2 28.4,1.2Q18.4,1.2 11.65,-5.65Q4.9,-12.5 4.9,-23.5Q4.9,-31.1 8.1,-36.75Q11.3,-42.4 16.6,-45.6Q21.9,-48.8 28.1,-48.8Q34.8,-48.8 39.45,-45.95Q44.1,-43.1 46.6,-39.1Q49.1,-35.1 49.1,-31.4Q49.1,-28.1 46.95,-25.85Q44.8,-23.6 40.4,-23.4Q36.6,-23.3 31.5,-23.3Q24.9,-23.3 18.9,-23.4Q15.9,-23.4 14.7,-23.4Q14.1,-23.4 13.95,-22.9Q13.8,-22.4 13.8,-21.5Q13.8,-14.6 18.2,-10.7Q22.6,-6.8 28.5,-6.8Q33.5,-6.8 36.7,-8.7Q39.9,-10.6 42,-13.1Q43.4,-14.5 44.9,-14.5Q46.6,-14.5 48,-13.15Q49.4,-11.8 49.4,-10Q49.4,-8.5 48.1,-7ZM40.2,-32.9Q40.2,-34.1 39.1,-36.1Q38,-38.1 35.4,-39.7Q32.8,-41.3 28.2,-41.3Q24.2,-41.3 21.15,-39.4Q18.1,-37.5 16.4,-35.15Q14.7,-32.8 14.7,-31.3Q14.7,-31.1 14.85,-30.95Q15,-30.8 15.6,-30.7Q16.2,-30.6 17.4,-30.55Q18.6,-30.5 20.65,-30.5Q22.7,-30.5 25.8,-30.5Q29.2,-30.5 32.45,-30.5Q35.7,-30.5 37.8,-30.6Q40.2,-31 40.2,-32.9Z"></path><path transform="translate(868 200)" d="M33.2,0.8Q24.8,0.8 18.8,-4.9Q18.6,-5.1 18.4,-5.3Q18.2,-5.5 18.1,-5.5Q18,-5.5 17.9,-4.8Q17.9,-4.7 17.9,-4.55Q17.9,-4.4 17.9,-4.2Q17.8,-4 17.8,-3.75Q17.8,-3.5 17.8,-3.4Q17.4,-1.6 16.15,-0.7Q14.9,0.2 13.5,0.2Q11.9,0.2 10.5,-0.95Q9.1,-2.1 9.1,-4.4Q9.1,-11.1 9.2,-23Q9.4,-38.4 9.4,-51.8Q9.4,-63.8 9.1,-69.7Q9,-72.2 10.5,-73.4Q12,-74.6 13.6,-74.6Q15.3,-74.6 16.65,-73.55Q18,-72.5 18,-70.3L18,-70.1Q18,-70 18,-69.8Q17.7,-60 17.7,-42.7Q17.7,-42 17.9,-42Q18.1,-42 18.2,-42.1Q18.3,-42.2 18.5,-42.4Q24.2,-48.5 33.2,-48.5Q43.4,-48.5 50.15,-41.6Q56.9,-34.7 56.9,-23.9Q56.9,-12.7 50.1,-5.95Q43.3,0.8 33.2,0.8ZM33,-7.2Q39.4,-7.2 43.85,-11.75Q48.3,-16.3 48.3,-23.9Q48.3,-31.6 43.85,-36.2Q39.4,-40.8 33,-40.8Q26.6,-40.8 22.2,-36.2Q17.8,-31.6 17.8,-23.9Q17.8,-16.3 22.2,-11.75Q26.6,-7.2 33,-7.2Z"></path></svg>